# xmcd CD database file
#
# Track frame offsets:
#	150
#	19104
#	44847
#	60809
#	93823
#	113491
#	132045
#	144690
#	157026
#	181577
#	197233
#
# Disc length: 2923 seconds
#
# Revision: 1
# Processed by: cddbd v1.5.2PL0 Copyright (c) Steve Scherf et al.
# Submitted via: CDex 1.50Beta7
#
DISCID=8a0b690b
DTITLE=Leliwa Jazz Band - Leliwa Jazz Band
DYEAR=2008
DGENRE=Jazz
TTITLE0=At The Jazz Band Ball
TTITLE1=Livery Stable Blues
TTITLE2=Cornet crop Suej
TTITLE3=Someday, Youll Be Sorry
TTITLE4=Potato Hand Blues
TTITLE5=Weeping Willow
TTITLE6=Orys Creole Trombone
TTITLE7=My Heart
TTITLE8=Struttin With Some Barbecue
TTITLE9=Muskart Ramble
TTITLE10=Thats A Plenty 
EXTD=YEAR: 2008
EXTT0=
EXTT1=
EXTT2=
EXTT3=
EXTT4=
EXTT5=
EXTT6=
EXTT7=
EXTT8=
EXTT9=
EXTT10=
PLAYORDER=
